<?xml version="1.0" encoding="UTF-8" standalone="no"?>
<!-- Generator: Adobe Illustrator 19.0.0, SVG Export Plug-In . SVG Version: 6.00 Build 0)  -->

<svg
   fill="#fff"
   version="1.1"
   id="Capa_1"
   x="0px"
   y="0px"
   viewBox="0 0 490.688 490.688"
   style="enable-background:new 0 0 490.688 490.688;"
   xml:space="preserve"
   sodipodi:docname="down-arrow.svg"
   inkscape:version="1.3.2 (091e20e, 2023-11-25, custom)"
   xmlns:inkscape="http://www.inkscape.org/namespaces/inkscape"
   xmlns:sodipodi="http://sodipodi.sourceforge.net/DTD/sodipodi-0.dtd"
   xmlns="http://www.w3.org/2000/svg"
   xmlns:svg="http://www.w3.org/2000/svg"><defs
   id="defs18" /><sodipodi:namedview
   id="namedview18"
   pagecolor="#ffffff"
   bordercolor="#000000"
   borderopacity="0.25"
   inkscape:showpageshadow="2"
   inkscape:pageopacity="0.0"
   inkscape:pagecheckerboard="0"
   inkscape:deskcolor="#d1d1d1"
   inkscape:zoom="1.6038705"
   inkscape:cx="245.34399"
   inkscape:cy="245.34399"
   inkscape:window-width="1920"
   inkscape:window-height="1001"
   inkscape:window-x="-9"
   inkscape:window-y="-9"
   inkscape:window-maximized="1"
   inkscape:current-layer="Capa_1" />
<g
   id="g2">
	<path
   style="fill:#607D8B;"
   d="M472.328,216.529L245.213,443.665L18.098,216.529c-4.237-4.093-10.99-3.975-15.083,0.262   c-3.992,4.134-3.992,10.687,0,14.82l234.667,234.667c4.165,4.164,10.917,4.164,15.083,0l234.667-234.667   c4.093-4.237,3.975-10.99-0.262-15.083c-4.134-3.993-10.687-3.993-14.821,0L472.328,216.529z"
   id="path1" />
	<path
   style="fill:#607D8B;"
   d="M472.328,24.529L245.213,251.665L18.098,24.529c-4.237-4.093-10.99-3.975-15.083,0.262   c-3.992,4.134-3.992,10.687,0,14.821l234.667,234.667c4.165,4.164,10.917,4.164,15.083,0L487.432,39.612   c4.237-4.093,4.354-10.845,0.262-15.083c-4.093-4.237-10.845-4.354-15.083-0.262c-0.089,0.086-0.176,0.173-0.262,0.262   L472.328,24.529z"
   id="path2" />
</g>

<path
   d="M245.213,277.415c-2.831,0.005-5.548-1.115-7.552-3.115L2.994,39.633c-4.093-4.237-3.975-10.99,0.262-15.083  c4.134-3.992,10.687-3.992,14.821,0l227.136,227.115L472.328,24.529c4.093-4.237,10.845-4.354,15.083-0.262  s4.354,10.845,0.262,15.083c-0.086,0.089-0.173,0.176-0.262,0.262L252.744,274.279C250.748,276.28,248.04,277.408,245.213,277.415z"
   id="path4" />
<g
   id="g4">
</g>
<g
   id="g5">
</g>
<g
   id="g6">
</g>
<g
   id="g7">
</g>
<g
   id="g8">
</g>
<g
   id="g9">
</g>
<g
   id="g10">
</g>
<g
   id="g11">
</g>
<g
   id="g12">
</g>
<g
   id="g13">
</g>
<g
   id="g14">
</g>
<g
   id="g15">
</g>
<g
   id="g16">
</g>
<g
   id="g17">
</g>
<g
   id="g18">
</g>
<path
   style="fill:#000000;stroke-width:0.623492"
   d="M 241.2913,276.24346 C 240.26254,275.77608 185.7792,221.70695 120.21723,156.08984 13.102935,48.885481 0.97058333,36.546652 0.58916283,34.425866 -0.2363139,29.836023 1.9860912,25.105137 5.924439,23.068538 8.2150316,21.884027 12.959244,21.863906 15.150637,23.029408 16.076639,23.521906 68.178159,75.286932 130.93179,138.0628 L 245.02931,252.20074 359.75325,137.52693 C 484.27747,13.057142 476.20114,20.700874 482.03472,21.79526 c 3.22805,0.605585 7.45115,4.82868 8.05673,8.056726 1.09488,5.836217 9.07248,-2.58225 -119.62928,126.240324 -82.60433,82.68186 -119.32803,119.03764 -121.06548,119.85259 -2.93764,1.37789 -5.52031,1.47302 -8.10539,0.29856 z"
   id="path18" /><path
   style="fill:#000000;stroke-width:0.623492"
   d="m 241.91479,468.51329 c -1.30335,-0.38448 -38.107,-36.80488 -121.38582,-120.1218 C 13.118682,240.93206 0.97063321,228.58242 0.5891594,226.46132 c -0.57428576,-3.19319 0.0436994,-5.8546 1.9353247,-8.33465 1.7744768,-2.32646 3.3491359,-3.3133 6.3763086,-3.99603 5.0959643,-1.14933 -1.4170739,-7.34085 121.0995473,115.12142 62.92717,62.89927 114.69286,114.3623 115.03486,114.3623 0.342,0 51.68551,-51.07619 114.09668,-113.50265 62.41116,-62.42646 114.40206,-114.08395 115.53532,-114.79442 2.79375,-1.75147 7.4429,-1.73428 10.31073,0.0381 3.98476,2.46272 5.86647,7.09901 4.70622,11.59556 -0.56487,2.18917 -15.13495,16.99857 -119.2185,121.17677 -82.60371,82.67881 -119.33157,119.03767 -121.06896,119.85259 -2.69474,1.26396 -4.55468,1.39644 -7.4819,0.53294 z"
   id="path19" /></svg>
